<?xml version="1.0" encoding="utf-8"?>
<!-- Generator: Adobe Illustrator 22.1.0, SVG Export Plug-In . SVG Version: 6.00 Build 0)  -->
<svg version="1.1" id="圖層_1" xmlns="http://www.w3.org/2000/svg" xmlns:xlink="http://www.w3.org/1999/xlink" x="0px" y="0px"
	 viewBox="0 0 191 17" style="enable-background:new 0 0 191 17;" xml:space="preserve">
<style type="text/css">
	.st0{fill:#003477;}
</style>
<g>
	<path class="st0" d="M6.4,7.9c0.8-0.7,1.2-1.6,1.2-2.7c0-0.6-0.1-1.2-0.4-1.8C7,2.9,6.6,2.4,6.2,2C5.8,1.6,5.3,1.4,4.7,1.2
		C4.1,1.1,3.3,1,2.3,1H0v15.1h3.5c1.1,0,1.9-0.1,2.6-0.3c0.6-0.2,1.2-0.5,1.7-1C8.6,14,9,13,9,11.8c0-0.9-0.3-1.7-0.7-2.5
		C7.8,8.7,7.2,8.2,6.4,7.9z M2.3,3.1H3c0.8,0,1.4,0.2,1.8,0.6s0.6,0.9,0.6,1.6S5.3,6.5,4.9,6.9C4.5,7.3,3.8,7.5,3,7.5H2.3V3.1z
		 M6,13.4C5.5,13.8,4.7,14,3.7,14H2.3V9.4h1.1c1.3,0,2.1,0.2,2.7,0.7c0.5,0.4,0.7,0.9,0.7,1.6S6.5,13,6,13.4z"/>
	<rect x="11.8" y="1" class="st0" width="2.3" height="15.1"/>
	<path class="st0" d="M25.6,10.5h3.8c-0.1,1-0.6,1.9-1.5,2.7c-0.9,0.7-1.9,1.1-3,1.1c-1.4,0-2.6-0.5-3.7-1.5
		c-1.2-1.1-1.8-2.5-1.8-4.2s0.5-3,1.6-4.1c1.1-1.2,2.4-1.7,4-1.7c1.8,0,3.3,0.9,4.5,2.5l1.6-1.6c-1-1-1.9-1.8-2.9-2.3
		s-2.1-0.7-3.3-0.7c-2.2,0-4.1,0.8-5.6,2.3C17.8,4.6,17,6.4,17,8.6c0,2.1,0.8,4,2.3,5.5s3.3,2.3,5.4,2.3s3.9-0.8,5.3-2.4
		c0.6-0.7,1-1.4,1.3-2.2c0.3-0.9,0.4-1.9,0.4-3V8.3h-6.1C25.6,8.3,25.6,10.5,25.6,10.5z"/>
	<path class="st0" d="M50.1,2.9c-0.8-0.7-1.7-1.2-2.6-1.5S45.4,1,43.9,1h-3.2v15h3.2c1.5,0,2.7-0.1,3.5-0.4c0.9-0.3,1.8-0.8,2.6-1.5
		c1.6-1.4,2.4-3.3,2.4-5.6S51.7,4.3,50.1,2.9z M48.3,12.6c-0.5,0.5-1.1,0.9-1.8,1.1C45.9,13.9,45,14,44,14h-1h-0.1V3.2h1
		c1.9,0,3.4,0.5,4.4,1.4c1.1,1,1.7,2.3,1.7,4C50,10.2,49.4,11.6,48.3,12.6z"/>
	<path class="st0" d="M52.7,16.1h2.5l1.7-3.7h6.5l1.6,3.7h2.4l-7.2-16L52.7,16.1z M62.5,10.3H58l2.3-5.1L62.5,10.3z"/>
	<polygon class="st0" points="76.1,1 66.9,1 66.9,3.2 70.4,3.2 70.4,16.1 72.7,16.1 72.7,3.2 72.7,3.1 76.1,3.1 	"/>
	<path class="st0" d="M75.5,16.1H78l1.7-3.7h6.5l1.5,3.7h2.5L83,0.1L75.5,16.1z M80.7,10.3L83,5.2l2.3,5.1
		C85.3,10.3,80.7,10.3,80.7,10.3z"/>
	<rect x="98.3" y="1" class="st0" width="2.3" height="15.1"/>
	<polygon class="st0" points="115.2,11.5 104.2,0 104.2,16.1 106.5,16.1 106.5,5.5 117.5,17 117.5,1 115.2,1 	"/>
	<path class="st0" d="M126.4,7.1l-1.5-0.6c-1.1-0.5-1.6-1.1-1.6-1.8c0-0.5,0.2-0.9,0.6-1.3c0.4-0.3,1-0.5,1.6-0.5s1,0.1,1.3,0.3
		s0.7,0.6,1,1.2l1.8-1.1c-1-1.7-2.3-2.6-4.1-2.6c-1.3,0-2.3,0.4-3.2,1.2c-0.9,0.7-1.3,1.7-1.3,2.8c0,1.7,1,3,2.9,3.7l1.5,0.6
		c0.4,0.2,0.7,0.3,1,0.5s0.5,0.4,0.7,0.6c0.2,0.2,0.3,0.5,0.4,0.7s0.1,0.5,0.1,0.8c0,0.7-0.2,1.3-0.7,1.8s-1.1,0.7-1.8,0.7
		c-0.9,0-1.6-0.3-2.1-1c-0.2-0.3-0.4-0.9-0.5-1.8l-2.3,0.5c0.2,1.4,0.8,2.5,1.6,3.3c0.8,0.8,1.9,1.2,3.2,1.2c1.4,0,2.6-0.5,3.5-1.4
		c0.9-0.9,1.4-2,1.4-3.4c0-1-0.2-1.9-0.8-2.6C128.5,8.2,127.6,7.6,126.4,7.1z"/>
	<polygon class="st0" points="131.4,3.2 134.9,3.2 134.9,16.1 137.2,16.1 137.2,3.2 137.2,3.1 140.6,3.1 140.6,1 131.4,1 	"/>
	<rect x="142.7" y="1" class="st0" width="2.3" height="15.1"/>
	<polygon class="st0" points="147,3.2 150.4,3.2 150.4,16.1 152.7,16.1 152.7,3.2 152.7,3.1 156.2,3.1 156.2,1 147,1 	"/>
	<path class="st0" d="M167.1,10.1c0,1.3-0.2,2.2-0.6,2.8c-0.7,0.9-1.5,1.3-2.7,1.3s-2.1-0.4-2.7-1.3c-0.4-0.6-0.6-1.5-0.6-2.8V1
		h-2.3v9.7c0,1.6,0.5,2.9,1.5,3.9c1.1,1.1,2.5,1.7,4.1,1.7s3-0.6,4.1-1.7c1-1,1.5-2.3,1.5-3.9V1h-2.3V10.1z"/>
	<polygon class="st0" points="171.4,3.2 174.9,3.2 174.9,16.1 177.2,16.1 177.2,3.2 177.2,3.1 180.6,3.1 180.6,1 171.4,1 	"/>
	<polygon class="st0" points="191,3.2 191,1 182.7,1 182.7,16 191,16 191,13.9 185,13.9 185,8.9 190.9,8.9 190.9,6.8 185,6.8 
		185,3.2 	"/>
</g>
</svg>
