<?xml version="1.0" encoding="utf-8"?>
<!-- Generator: Adobe Illustrator 15.0.0, SVG Export Plug-In . SVG Version: 6.00 Build 0)  -->
<!DOCTYPE svg PUBLIC "-//W3C//DTD SVG 1.1//EN" "http://www.w3.org/Graphics/SVG/1.1/DTD/svg11.dtd">
<svg version="1.1" id="图层_1" xmlns="http://www.w3.org/2000/svg" xmlns:xlink="http://www.w3.org/1999/xlink" x="0px" y="0px"
	 width="595.28px" height="595.28px" viewBox="0 0 595.28 595.28" enable-background="new 0 0 595.28 595.28" xml:space="preserve">
<g>
	<g>
		<g>
			<path fill="#9B0000" d="M251.369,310.968l-0.192,0.081c-1.122-0.597-2.519-1.271-4.186-2.015
				c-1.623-0.74-3.358-1.488-5.176-2.232l-0.078-0.195l0.344-0.751l0.199-0.067c0.448,0.151,0.872,0.307,1.283,0.438
				c0.737,0.276,1.212,0.397,1.458,0.414c0.172,0,0.36-0.101,0.566-0.289c0.337-0.334,1.122-1.849,2.361-4.601l1.394-3.075
				c0.428-0.93,0.939-2.105,1.542-3.546l0.401-0.939c0.188-0.411,0.188-0.653,0.02-0.731c-0.067-0.027-0.364-0.054-0.862-0.05
				c-1.368,0.013-2.543,0.03-3.526,0.061l-0.104-0.151c0.162-0.492,0.31-1.054,0.445-1.698l0.054-0.084
				c2.573,0.387,5.51,0.68,8.81,0.869l0.179,0.303c-0.256,0.472-0.623,1.179-1.118,2.112c-0.192,0.343-0.653,1.303-1.404,2.866
				l-2.236,4.863c-1.573,3.469-2.357,5.368-2.357,5.679c-0.014,0.215,0.064,0.397,0.215,0.502c0.246,0.219,0.983,0.656,2.22,1.293
				l0.094,0.185L251.369,310.968z"/>
			<path fill="#9B0000" d="M288.852,313.847c-0.145,1.051-0.475,1.974-1.021,2.718c-1.01,1.452-2.452,2.345-4.338,2.664
				c-0.778,0.145-1.697,0.139-2.758-0.007c-2.276-0.303-3.913-1.31-4.93-3.018c-0.455-0.744-0.606-1.697-0.455-2.815
				c0.182-1.363,0.815-2.414,1.916-3.142c0.36-0.226,1.118-0.56,2.273-0.939c-1.879-1.287-2.691-2.873-2.445-4.742
				c0.283-2.104,1.556-3.496,3.812-4.196c0.983-0.293,2.061-0.367,3.243-0.212c1.721,0.222,3.041,0.798,3.93,1.711
				c0.845,0.872,1.182,1.896,1.034,3.088c-0.219,1.613-1.357,2.815-3.412,3.58c1.337,0.724,2.246,1.522,2.721,2.395
				C288.869,311.695,289,312.691,288.852,313.847z M285.272,314.958c0.182-1.303-0.347-2.381-1.549-3.195
				c-0.788-0.546-1.64-1.062-2.56-1.557l-0.391-0.185c-1.556,0.781-2.428,1.923-2.633,3.418c-0.118,0.862-0.041,1.573,0.252,2.152
				c0.62,1.289,1.654,2.044,3.071,2.239c1.007,0.128,1.853-0.081,2.549-0.596C284.723,316.683,285.151,315.932,285.272,314.958z
				 M286.498,304.993c0.111-0.889-0.078-1.63-0.596-2.253c-0.522-0.616-1.28-0.99-2.287-1.118c-0.91-0.132-1.657,0.027-2.257,0.465
				c-0.565,0.404-0.882,0.953-0.983,1.653c-0.087,0.684,0.155,1.36,0.718,1.994c0.31,0.36,0.781,0.714,1.397,1.091
				c0.215,0.148,0.549,0.34,0.99,0.596l0.781,0.435C285.568,307.311,286.319,306.351,286.498,304.993z"/>
			<path fill="#9B0000" d="M320.802,306.93c0.33,2.404,0.121,4.452-0.616,6.159c-0.768,1.792-1.913,3.301-3.442,4.5
				c-1.565,1.242-3.374,2.004-5.411,2.286l-1.313-0.724l0.289-0.572c0.313,0.047,0.684,0.047,1.139-0.011
				c1.563-0.219,2.862-0.933,3.893-2.142c0.408-0.485,0.769-1.111,1.075-1.866c0.488-1.195,0.707-2.886,0.653-5.055
				c-1.32,1.441-2.078,2.189-2.24,2.236c-0.633,0.303-1.333,0.512-2.095,0.619c-1.347,0.189-2.488-0.107-3.448-0.875
				c-1.044-0.835-1.678-2.064-1.896-3.705c-0.377-2.646,0.391-4.741,2.277-6.291c0.892-0.73,2.044-1.198,3.479-1.387
				c2.681-0.378,4.755,0.491,6.207,2.579C320.071,303.714,320.546,305.128,320.802,306.93z M316.676,306.077
				c-0.235-1.67-0.677-2.865-1.337-3.604c-0.653-0.73-1.447-1.023-2.374-0.912c-1.158,0.172-1.869,0.835-2.115,2.03
				c-0.145,0.634-0.161,1.364-0.04,2.196c0.202,1.395,0.637,2.438,1.311,3.102c0.633,0.637,1.421,0.879,2.34,0.751
				c1.192-0.155,1.917-0.741,2.186-1.741C316.773,307.438,316.773,306.832,316.676,306.077z"/>
			<path fill="#9B0000" d="M352.734,301.278c0.438,0.977,0.627,1.934,0.56,2.843c-0.121,1.761-0.899,3.273-2.341,4.533
				c-0.6,0.528-1.384,1.003-2.371,1.417c-2.104,0.917-4.021,0.917-5.762-0.013c-0.785-0.418-1.404-1.152-1.859-2.159
				c-0.549-1.276-0.549-2.516,0-3.701c0.188-0.387,0.674-1.047,1.472-1.98c-2.286-0.131-3.802-1.063-4.553-2.778
				c-0.853-1.953-0.488-3.809,1.095-5.573c0.68-0.771,1.563-1.384,2.65-1.876c1.593-0.684,3.014-0.889,4.246-0.559
				c1.176,0.303,2.011,1.014,2.485,2.105c0.66,1.505,0.3,3.119-1.063,4.833c1.519-0.074,2.714,0.131,3.566,0.623
				C351.637,299.439,352.264,300.197,352.734,301.278z M346.138,294.927c-0.36-0.815-0.92-1.357-1.678-1.609
				c-0.768-0.266-1.603-0.192-2.529,0.219c-0.835,0.36-1.404,0.886-1.687,1.569c-0.267,0.64-0.267,1.266,0.017,1.913
				c0.283,0.64,0.835,1.078,1.646,1.35c0.441,0.125,1.024,0.199,1.755,0.199c0.26,0.014,0.646,0.014,1.158,0l0.883-0.047
				C346.545,297.382,346.687,296.18,346.138,294.927z M350.26,304.084c-0.519-1.206-1.525-1.853-2.984-1.943
				c-0.96-0.054-1.953-0.047-2.997,0.017l-0.435,0.021c-0.919,1.479-1.081,2.923-0.475,4.297c0.34,0.795,0.788,1.361,1.327,1.725
				c1.216,0.785,2.475,0.879,3.795,0.307c0.916-0.4,1.55-1.03,1.873-1.842C350.688,305.839,350.646,304.977,350.26,304.084z"/>
		</g>
		<g>
			<path fill="#9B0000" d="M244.751,66.624c-16.394,6.927-31.098,16.852-43.73,29.481c-12.636,12.632-22.551,27.353-29.481,43.733
				c-7.173,16.96-10.814,34.971-10.814,53.551c0,18.573,3.641,36.591,10.814,53.547c6.931,16.381,16.846,31.088,29.481,43.724
				c12.632,12.629,27.336,22.544,43.73,29.475c16.95,7.177,34.961,10.813,53.534,10.813s36.594-3.637,53.558-10.813
				c16.38-6.931,31.091-16.846,43.724-29.475c12.639-12.636,22.554-27.343,29.471-43.724c7.187-16.957,10.824-34.974,10.824-53.547
				c0-18.58-3.638-36.591-10.824-53.551c-6.917-16.381-16.832-31.101-29.471-43.733c-12.633-12.629-27.344-22.554-43.724-29.481
				c-16.964-7.16-34.984-10.811-53.558-10.811S261.701,59.464,244.751,66.624z M246.516,315.941
				c-15.838-6.691-30.063-16.283-42.272-28.504c-12.231-12.205-21.823-26.443-28.511-42.272
				c-6.941-16.397-10.447-33.819-10.447-51.776c0-17.96,3.506-35.382,10.447-51.79c6.688-15.838,16.28-30.063,28.511-42.272
				c12.208-12.218,26.434-21.823,42.272-28.525c16.391-6.934,33.813-10.453,51.77-10.453c17.964,0,35.378,3.519,51.779,10.453
				c15.845,6.702,30.063,16.307,42.278,28.525c12.229,12.208,21.81,26.434,28.515,42.272c6.938,16.408,10.454,33.829,10.454,51.79
				c0,17.957-3.517,35.378-10.454,51.776c-6.705,15.829-16.286,30.067-28.515,42.272c-12.215,12.221-26.434,21.813-42.278,28.504
				c-16.401,6.941-33.815,10.438-51.779,10.438C280.328,326.379,262.907,322.883,246.516,315.941z"/>
		</g>
		<path fill="#9B0000" d="M258.687,99.641c-12.114,5.119-22.999,12.454-32.32,21.799c-9.349,9.355-16.684,20.217-21.813,32.331
			c-5.297,12.552-7.988,25.871-7.988,39.602c0,13.737,2.691,27.053,7.988,39.604c5.129,12.107,12.464,22.975,21.813,32.324
			c9.322,9.342,20.207,16.684,32.32,21.803c12.548,5.321,25.857,8.002,39.595,8.002c13.734,0,27.06-2.681,39.608-8.002
			c12.117-5.119,22.995-12.46,32.341-21.803c9.339-9.349,16.663-20.21,21.793-32.324c5.301-12.552,8.001-25.868,8.001-39.604
			c0-13.73-2.7-27.05-8.001-39.602c-5.13-12.114-12.454-22.975-21.793-32.331c-9.346-9.346-20.224-16.681-32.341-21.799
			c-12.548-5.311-25.874-7.988-39.608-7.988C284.544,91.653,271.235,94.33,258.687,99.641z M259.893,284.275
			c-11.747-4.964-22.305-12.074-31.367-21.14c-9.06-9.069-16.168-19.61-21.136-31.357c-5.139-12.158-7.752-25.076-7.752-38.406
			c0-13.316,2.613-26.231,7.752-38.406c4.968-11.753,12.077-22.308,21.136-31.354c9.063-9.063,19.621-16.182,31.367-21.14
			c12.161-5.156,25.069-7.752,38.389-7.752c13.316,0,26.245,2.597,38.413,7.752c11.747,4.958,22.294,12.077,31.357,21.14
			c9.065,9.045,16.172,19.6,21.146,31.354c5.149,12.175,7.746,25.09,7.746,38.406c0,13.33-2.597,26.248-7.746,38.406
			c-4.974,11.747-12.08,22.288-21.146,31.357c-9.063,9.066-19.61,16.175-31.357,21.14c-12.168,5.156-25.097,7.752-38.413,7.752
			C284.962,292.027,272.054,289.431,259.893,284.275z"/>
		<g>
			<path fill="#9B0000" d="M181.609,228.606c0.963-0.36,1.856-0.482,2.698-0.351c0.835,0.115,1.603,0.455,2.304,0.963
				c0.724,0.552,1.347,1.253,1.899,2.088c0.549,0.835,1.041,1.822,1.479,2.957l0.528,1.367l4.749-1.802
				c0.287-0.104,0.512-0.246,0.674-0.448c0.168-0.188,0.263-0.465,0.263-0.815c0.013-0.189-0.014-0.482-0.094-0.869
				c-0.064-0.391-0.131-0.73-0.206-0.98l0.936-0.36l3.54,9.261l-0.943,0.351c-0.108-0.216-0.256-0.509-0.451-0.869
				c-0.192-0.38-0.344-0.613-0.465-0.758c-0.246-0.259-0.485-0.407-0.71-0.434c-0.222-0.024-0.485,0.02-0.818,0.141l-11.952,4.557
				c-0.283,0.115-0.502,0.246-0.664,0.438c-0.168,0.158-0.266,0.434-0.273,0.815c-0.01,0.256,0.017,0.579,0.084,0.987
				c0.067,0.394,0.121,0.7,0.175,0.889l-0.943,0.35l-3.553-9.339c-0.842-2.175-1.122-3.95-0.839-5.294
				C179.322,230.115,180.174,229.155,181.609,228.606z M183.97,233.004c-1.263,0.485-2.115,1.102-2.532,1.849
				c-0.428,0.758-0.377,1.771,0.111,3.082l0.381,0.997l7.429-2.846l-0.199-0.505c-0.488-1.283-1.162-2.159-2.024-2.614
				C186.273,232.506,185.219,232.533,183.97,233.004z"/>
			<path fill="#9B0000" d="M176.793,200.135l0.111,0.997c-0.64,0.31-1.287,0.812-1.933,1.495c-0.633,0.684-0.973,1.317-1.034,1.926
				c-0.027,0.243-0.027,0.593,0.01,1.051c0.041,0.448,0.078,0.835,0.115,1.104l0.303,2.6l6.941-0.808l-0.212-1.835
				c-0.054-0.455-0.151-0.862-0.313-1.236c-0.152-0.36-0.397-0.677-0.748-0.953c-0.209-0.165-0.576-0.323-1.098-0.475
				c-0.502-0.128-0.946-0.202-1.31-0.219l-0.111-0.997l7.486-0.872l0.125,1c-0.354,0.071-0.788,0.252-1.3,0.529
				c-0.512,0.276-0.862,0.502-1.044,0.71c-0.276,0.313-0.445,0.657-0.509,1.047c-0.081,0.404-0.081,0.835-0.02,1.331l0.208,1.842
				l5.204-0.629c0.539-0.054,0.966-0.142,1.28-0.253c0.306-0.125,0.532-0.296,0.684-0.542c0.131-0.219,0.195-0.532,0.205-0.913
				c0.01-0.367-0.017-0.869-0.098-1.495c-0.03-0.293-0.067-0.647-0.138-1.064c-0.047-0.414-0.122-0.774-0.199-1.067
				c-0.078-0.351-0.179-0.67-0.303-0.977c-0.125-0.296-0.263-0.512-0.455-0.643c-0.455-0.364-1.138-0.741-2.048-1.152
				c-0.909-0.404-1.573-0.66-2.031-0.774l-0.101-0.919l5.638-0.303l1.974,16.893l-0.99,0.111c-0.041-0.236-0.121-0.556-0.215-0.957
				c-0.104-0.407-0.199-0.69-0.273-0.852c-0.182-0.316-0.38-0.501-0.6-0.589c-0.215-0.094-0.492-0.121-0.815-0.074l-12.71,1.479
				c-0.299,0.037-0.549,0.104-0.737,0.226c-0.192,0.125-0.344,0.374-0.455,0.731c-0.078,0.239-0.135,0.563-0.172,0.977
				c-0.037,0.418-0.057,0.711-0.057,0.93l-0.994,0.121l-1.873-15.959L176.793,200.135z"/>
			<path fill="#9B0000" d="M193.066,166.599l-1.014,7.089c-1.809,0.832-3.314,1.593-4.55,2.293c-1.229,0.7-2.779,1.603-4.645,2.694
				l-0.094,0.65l5.658,0.818c0.317,0.037,0.569,0.027,0.798-0.047c0.226-0.087,0.421-0.276,0.623-0.589
				c0.087-0.142,0.188-0.354,0.296-0.637c0.114-0.29,0.209-0.579,0.283-0.872l0.987,0.142l-1.357,9.534l-0.994-0.138
				c0.02-0.226,0.037-0.549,0.064-0.977c0.03-0.418,0.01-0.711-0.027-0.899c-0.074-0.303-0.209-0.549-0.397-0.704
				c-0.188-0.142-0.455-0.232-0.781-0.3l-12.727-1.802c-0.293-0.041-0.556-0.041-0.768,0.037c-0.219,0.067-0.424,0.263-0.637,0.579
				c-0.162,0.236-0.299,0.556-0.424,0.906c-0.135,0.351-0.229,0.646-0.286,0.873l-0.987-0.138l1.408-9.861l0.99,0.151
				c-0.01,0.256-0.017,0.58-0.027,0.95c0,0.374,0.017,0.697,0.067,0.957c0.057,0.35,0.199,0.596,0.428,0.731
				c0.226,0.151,0.471,0.232,0.758,0.283l6.065,0.866l0.078-0.532c-0.512-0.734-1.118-1.606-1.839-2.597
				c-0.721-0.997-1.327-1.775-1.792-2.337c-0.667-0.765-1.186-1.351-1.573-1.731c-0.401-0.377-0.761-0.599-1.074-0.643
				c-0.152-0.02-0.283,0.125-0.397,0.408c-0.131,0.293-0.246,0.764-0.371,1.394l-0.997-0.142l1.121-7.803l0.987,0.148
				c-0.03,0.95,0.037,1.765,0.182,2.428c0.148,0.673,0.461,1.357,0.936,2.071c0.68,1,1.28,1.835,1.792,2.505
				c0.502,0.667,1.155,1.519,1.95,2.563c1.111-0.653,2.458-1.458,4.051-2.377c1.59-0.93,3.149-1.863,4.661-2.789
				c0.391-0.25,0.768-0.522,1.138-0.832c0.371-0.327,0.684-0.707,0.936-1.108c0.125-0.206,0.229-0.428,0.313-0.684
				c0.098-0.259,0.151-0.485,0.192-0.674L193.066,166.599z"/>
			<path fill="#9B0000" d="M199.919,148.598l-3.751,9.345l-0.93-0.367c0.078-0.226,0.168-0.546,0.313-0.98
				c0.125-0.418,0.199-0.721,0.199-0.91c0-0.343-0.074-0.606-0.226-0.774c-0.155-0.192-0.381-0.354-0.684-0.475l-11.935-4.779
				c-0.273-0.101-0.522-0.151-0.778-0.121c-0.236,0.02-0.482,0.138-0.728,0.397c-0.165,0.158-0.354,0.404-0.589,0.748
				c-0.226,0.34-0.417,0.646-0.545,0.879l-0.933-0.357l3.735-9.355l0.93,0.371c-0.067,0.246-0.155,0.559-0.25,0.939
				c-0.101,0.364-0.158,0.69-0.178,0.966c-0.017,0.36,0.057,0.613,0.229,0.812c0.178,0.192,0.407,0.343,0.69,0.438l11.925,4.775
				c0.273,0.131,0.549,0.172,0.778,0.142c0.252-0.027,0.501-0.158,0.734-0.417c0.148-0.138,0.327-0.374,0.546-0.728
				c0.215-0.36,0.397-0.673,0.512-0.93L199.919,148.598z"/>
			<path fill="#9B0000" d="M202.839,111.802c-0.121,0.199-0.283,0.492-0.481,0.91c-0.202,0.387-0.296,0.805-0.286,1.239
				c0,0.401,0.199,0.818,0.569,1.243c0.377,0.438,1.01,0.97,1.886,1.593l10.561,7.588l-1.33,1.845l-17.974,0.977l6.911,4.947
				c0.865,0.623,1.559,1.034,2.078,1.25c0.532,0.199,0.997,0.236,1.374,0.128c0.293-0.067,0.644-0.263,1.051-0.583
				c0.417-0.344,0.731-0.6,0.939-0.815l0.818,0.576l-4.54,6.335l-0.818-0.579c0.172-0.287,0.344-0.633,0.512-1.031
				c0.172-0.401,0.259-0.792,0.266-1.138c-0.02-0.417-0.188-0.825-0.522-1.203c-0.333-0.4-0.977-0.943-1.933-1.623l-6.988-5.018
				c-0.347-0.242-0.717-0.431-1.102-0.545c-0.387-0.115-0.774-0.131-1.152-0.074c-0.414,0.074-0.798,0.226-1.155,0.445
				c-0.364,0.215-0.721,0.492-1.081,0.842l-0.815-0.586l3.98-5.537l15.765-0.855l-5.614-4.024c-0.882-0.637-1.603-1.051-2.115-1.243
				c-0.519-0.209-0.967-0.25-1.361-0.155c-0.31,0.087-0.657,0.283-1.044,0.599c-0.397,0.317-0.71,0.559-0.923,0.775l-0.785-0.566
				l4.51-6.294L202.839,111.802z"/>
			<path fill="#9B0000" d="M234.261,96.863c-0.192,0.178-0.351,0.363-0.492,0.501c-0.145,0.152-0.287,0.367-0.468,0.637
				c-0.206,0.313-0.263,0.589-0.188,0.872c0.077,0.256,0.188,0.492,0.37,0.721l1.32,1.65c0.273,0.323,0.492,0.596,0.664,0.778
				c0.168,0.206,0.377,0.451,0.623,0.744c-0.337,0.926-1.014,2.102-2.027,3.482c-1.014,1.394-2.068,2.539-3.159,3.401
				c-1.024,0.835-2.111,1.441-3.247,1.846c-1.148,0.417-2.313,0.579-3.489,0.495c-1.168-0.078-2.317-0.418-3.442-1.024
				c-1.125-0.596-2.162-1.489-3.108-2.664c-0.882-1.104-1.525-2.276-1.906-3.496c-0.397-1.223-0.512-2.455-0.367-3.698
				c0.138-1.212,0.549-2.388,1.223-3.533c0.684-1.148,1.61-2.192,2.785-3.139c0.805-0.644,1.63-1.148,2.465-1.502
				c0.842-0.357,1.573-0.596,2.199-0.727l0.178-1.044l0.872-0.711l4.254,5.102l-0.883,0.701c-1.751-1.155-3.273-1.812-4.583-2.007
				c-1.3-0.171-2.492,0.162-3.573,1.027c-1.273,1.024-1.812,2.364-1.61,4.042c0.205,1.67,1.087,3.479,2.654,5.429
				c1.667,2.078,3.313,3.435,4.934,4.055s3.055,0.441,4.297-0.556c0.576-0.472,1.021-0.977,1.344-1.505
				c0.306-0.539,0.495-1.034,0.563-1.452l-2.297-2.873c-0.192-0.232-0.387-0.417-0.606-0.481c-0.219-0.104-0.501-0.104-0.862-0.01
				c-0.273,0.074-0.586,0.188-0.93,0.377c-0.35,0.171-0.643,0.333-0.852,0.464l-0.626-0.768l7.349-5.924L234.261,96.863z"/>
			<path fill="#9B0000" d="M276.506,69.718c-0.232,0.091-0.566,0.246-1,0.452c-0.431,0.199-0.768,0.458-1.021,0.761
				c-0.263,0.283-0.387,0.711-0.377,1.283c0.01,0.556,0.172,1.371,0.448,2.448l1.745,6.507c0.512,1.913,0.266,3.62-0.724,5.132
				c-0.994,1.516-2.556,2.563-4.701,3.142c-2.499,0.65-4.587,0.616-6.261-0.145c-1.67-0.758-2.769-2.142-3.3-4.153l-2.398-8.945
				c-0.067-0.296-0.188-0.525-0.36-0.693c-0.158-0.182-0.417-0.31-0.778-0.397c-0.243-0.054-0.532-0.057-0.862-0.054
				c-0.33,0.034-0.6,0.054-0.795,0.081l-0.256-0.966l9.181-2.456l0.259,0.97c-0.259,0.084-0.522,0.185-0.778,0.31
				c-0.266,0.115-0.522,0.246-0.778,0.418c-0.296,0.171-0.455,0.404-0.512,0.663c-0.037,0.266-0.017,0.532,0.057,0.835l2.351,8.813
				c0.472,1.734,1.186,2.903,2.162,3.479c0.987,0.596,2.206,0.677,3.678,0.296c1.421-0.391,2.445-1.121,3.024-2.212
				c0.586-1.091,0.653-2.479,0.199-4.169l-1.573-5.934c-0.287-1.058-0.569-1.819-0.855-2.314c-0.283-0.475-0.606-0.805-0.963-0.953
				c-0.27-0.118-0.684-0.182-1.253-0.182c-0.569-0.01-0.977,0-1.199,0.027l-0.263-0.994l7.651-2.041L276.506,69.718z"/>
			<path fill="#9B0000" d="M310.763,68.429c-0.236,0.017-0.576,0.054-1.024,0.108c-0.434,0.07-0.842,0.239-1.191,0.485
				c-0.323,0.242-0.553,0.626-0.694,1.186c-0.142,0.552-0.219,1.377-0.226,2.465l-0.182,12.99l-2.276-0.021l-11.07-14.198
				l-0.121,8.51c-0.01,1.054,0.047,1.855,0.179,2.408c0.135,0.559,0.357,0.953,0.667,1.212c0.226,0.202,0.589,0.36,1.098,0.512
				c0.492,0.162,0.889,0.266,1.192,0.32l-0.006,0.997l-7.793-0.115l0.01-0.983c0.333-0.03,0.704-0.098,1.135-0.182
				c0.441-0.094,0.794-0.25,1.081-0.431c0.343-0.253,0.569-0.61,0.7-1.115c0.135-0.492,0.212-1.333,0.212-2.509l0.121-8.608
				c0.01-0.438-0.047-0.832-0.179-1.212c-0.128-0.387-0.32-0.714-0.599-0.983c-0.293-0.306-0.633-0.535-1.014-0.7
				c-0.377-0.165-0.825-0.317-1.307-0.411v-1.017l6.823,0.108l9.706,12.447l0.104-6.904c0.01-1.091-0.047-1.903-0.179-2.455
				c-0.142-0.532-0.363-0.93-0.674-1.192c-0.235-0.192-0.605-0.371-1.081-0.522c-0.484-0.151-0.872-0.239-1.168-0.313l0.023-0.967
				l7.753,0.104L310.763,68.429z"/>
			<path fill="#9B0000" d="M330.309,90.124l-9.753-2.512l0.253-0.98c0.219,0.05,0.552,0.118,0.997,0.192
				c0.438,0.087,0.747,0.108,0.939,0.087c0.333-0.047,0.576-0.162,0.744-0.343c0.161-0.158,0.286-0.411,0.374-0.717l3.223-12.454
				c0.067-0.279,0.077-0.545,0.027-0.788c-0.055-0.239-0.216-0.465-0.499-0.677c-0.175-0.138-0.44-0.29-0.808-0.488
				c-0.364-0.186-0.684-0.333-0.96-0.438l0.245-0.957l9.754,2.519l-0.256,0.967c-0.243-0.037-0.563-0.094-0.943-0.138
				c-0.381-0.05-0.714-0.067-0.987-0.05c-0.35,0.02-0.605,0.145-0.777,0.333c-0.162,0.205-0.283,0.448-0.36,0.73l-3.223,12.444
				c-0.078,0.293-0.078,0.569-0.027,0.798c0.054,0.232,0.229,0.471,0.502,0.684c0.148,0.118,0.428,0.263,0.805,0.441
				c0.377,0.162,0.711,0.293,0.974,0.388L330.309,90.124z"/>
			<path fill="#9B0000" d="M366.024,87.696c-0.263-0.104-0.529-0.192-0.788-0.232c-0.27-0.058-0.56-0.078-0.873-0.058
				c-0.417,0.017-0.774,0.084-1.061,0.206c-0.293,0.131-0.626,0.31-0.997,0.606c-0.508,0.397-1.239,0.98-2.188,1.765
				c-0.946,0.778-2.034,1.63-3.25,2.633c-1.081,0.882-2.267,1.869-3.547,2.94c-1.286,1.051-2.519,2.085-3.697,3.048l-2.253-1.195
				c0.313-3.142,0.637-6.325,0.946-9.568c0.333-3.243,0.553-5.5,0.646-6.776c0.027-0.468,0.017-0.838-0.047-1.111
				c-0.071-0.286-0.209-0.616-0.458-1.017c-0.182-0.263-0.351-0.488-0.519-0.653c-0.162-0.151-0.397-0.34-0.701-0.559l0.476-0.889
				l8.679,4.604l-0.455,0.865c-0.882-0.337-1.505-0.552-1.855-0.589c-0.364-0.047-0.569,0.01-0.667,0.172
				c-0.044,0.084-0.074,0.182-0.101,0.283c-0.021,0.108-0.051,0.256-0.088,0.458c-0.114,0.795-0.246,2.102-0.414,3.96
				c-0.162,1.856-0.441,4.685-0.835,8.437c1.771-1.485,3.26-2.748,4.465-3.789c1.202-1.037,2.264-1.957,3.173-2.751
				c0.448-0.387,0.852-0.757,1.195-1.118c0.351-0.344,0.576-0.617,0.684-0.835c0.132-0.239,0.064-0.532-0.212-0.889
				c-0.263-0.333-0.853-0.815-1.758-1.384l0.472-0.903l6.503,3.438L366.024,87.696z"/>
			<path fill="#9B0000" d="M385.745,108.778l-0.737-0.68c0.297-0.677,0.458-1.475,0.488-2.401c0.034-0.916-0.121-1.626-0.465-2.122
				c-0.145-0.229-0.394-0.485-0.717-0.788c-0.316-0.33-0.597-0.576-0.812-0.788l-1.927-1.761l-4.711,5.156l1.356,1.273
				c0.344,0.303,0.694,0.546,1.044,0.711c0.351,0.175,0.758,0.266,1.206,0.235c0.263-0.02,0.64-0.138,1.114-0.37
				c0.476-0.229,0.866-0.458,1.159-0.684l0.728,0.667l-5.089,5.577l-0.741-0.674c0.212-0.29,0.418-0.707,0.627-1.246
				c0.208-0.552,0.323-0.959,0.323-1.232c0-0.407-0.095-0.785-0.293-1.131c-0.209-0.337-0.495-0.67-0.862-1.01l-1.367-1.24
				l-3.526,3.863c-0.37,0.401-0.626,0.751-0.795,1.034c-0.151,0.293-0.209,0.576-0.151,0.855c0.037,0.252,0.192,0.539,0.418,0.815
				c0.249,0.293,0.593,0.653,1.07,1.088c0.219,0.188,0.481,0.441,0.795,0.71c0.313,0.273,0.596,0.495,0.862,0.673
				c0.283,0.219,0.583,0.397,0.855,0.539c0.303,0.155,0.549,0.209,0.778,0.199c0.565-0.037,1.343-0.199,2.29-0.481
				c0.949-0.296,1.633-0.532,2.037-0.741l0.674,0.616l-4.055,3.924l-12.539-11.458l0.681-0.73c0.179,0.145,0.444,0.333,0.785,0.579
				c0.343,0.239,0.589,0.387,0.768,0.455c0.333,0.121,0.606,0.138,0.825,0.067c0.229-0.078,0.454-0.249,0.667-0.485l8.635-9.44
				c0.205-0.219,0.337-0.448,0.404-0.65c0.067-0.222,0.02-0.505-0.135-0.875c-0.091-0.219-0.263-0.495-0.509-0.835
				c-0.235-0.337-0.418-0.576-0.549-0.741l0.66-0.728l11.861,10.824L385.745,108.778z"/>
			<path fill="#9B0000" d="M395.162,144.392l-3.772-5.86c0.893-2.004,1.583-3.63,2.055-4.88c0.485-1.263,1.007-2.782,1.563-4.543
				l-0.36-0.559l-4.601,2.977c-0.27,0.158-0.458,0.34-0.572,0.559c-0.114,0.209-0.142,0.492-0.084,0.852
				c0.026,0.151,0.101,0.421,0.235,0.744c0.125,0.327,0.249,0.606,0.351,0.822l-0.842,0.539l-5.264-8.153l0.845-0.549
				c0.151,0.199,0.364,0.458,0.627,0.782c0.266,0.31,0.465,0.525,0.612,0.623c0.297,0.205,0.56,0.293,0.788,0.283
				c0.236-0.017,0.495-0.121,0.762-0.3l10.767-6.934c0.245-0.168,0.435-0.347,0.549-0.539c0.135-0.188,0.151-0.481,0.094-0.862
				c-0.067-0.296-0.161-0.62-0.303-0.977c-0.131-0.347-0.246-0.626-0.33-0.821l0.842-0.539l5.517,8.544
				c1.232,1.926,1.869,3.57,1.916,4.951c0.037,1.374-0.552,2.445-1.765,3.24c-1.067,0.69-2.132,0.939-3.176,0.751
				c-1.051-0.199-2.162-0.805-3.324-1.822c-0.323,0.882-0.684,1.923-1.087,3.108c-0.422,1.175-0.825,2.401-1.24,3.65
				c-0.138,0.397-0.282,0.93-0.431,1.573c-0.162,0.646-0.188,1.138-0.088,1.496c0.061,0.202,0.132,0.431,0.276,0.707
				c0.121,0.279,0.216,0.472,0.272,0.586L395.162,144.392z M401.796,129.782c1.024-0.657,1.573-1.421,1.678-2.307
				c0.104-0.862-0.182-1.815-0.862-2.866l-0.553-0.845l-6.364,4.112l0.519,0.818c0.673,1.05,1.475,1.687,2.397,1.902
				C399.54,130.816,400.601,130.55,401.796,129.782z"/>
			<path fill="#9B0000" d="M400.24,159.277c-0.356-1.047-0.559-2.082-0.603-3.075c-0.051-0.997,0-1.869,0.148-2.62l-1.139-0.559
				l-0.34-1.027l6.169-2.223l0.351,1.051c-0.512,0.438-1.021,0.939-1.553,1.516c-0.532,0.579-0.966,1.206-1.326,1.852
				c-0.371,0.66-0.627,1.371-0.758,2.102c-0.132,0.721-0.067,1.488,0.208,2.307c0.367,1.095,0.91,1.846,1.637,2.26
				c0.728,0.401,1.509,0.479,2.324,0.199c0.667-0.219,1.139-0.66,1.421-1.307c0.283-0.643,0.418-1.552,0.401-2.697
				c0-0.761,0-1.452-0.011-2.088c-0.01-0.633,0.011-1.229,0.027-1.798c0.077-1.31,0.444-2.391,1.118-3.233
				c0.663-0.842,1.535-1.461,2.6-1.798c0.66-0.232,1.354-0.31,2.064-0.222c0.721,0.074,1.425,0.33,2.099,0.721
				c0.64,0.377,1.239,0.939,1.805,1.667c0.579,0.741,1.023,1.593,1.347,2.566c0.324,0.96,0.492,1.896,0.513,2.819
				c0.02,0.93-0.027,1.664-0.132,2.24l0.967,0.488l0.36,1.064l-5.84,2.074l-0.351-1.051c0.539-0.458,1.088-0.966,1.631-1.509
				c0.538-0.552,0.973-1.067,1.279-1.583c0.34-0.559,0.549-1.139,0.663-1.745c0.098-0.613,0.037-1.27-0.198-1.97
				c-0.293-0.872-0.778-1.495-1.451-1.903c-0.681-0.394-1.385-0.465-2.096-0.222c-0.68,0.229-1.165,0.66-1.431,1.28
				c-0.272,0.63-0.407,1.519-0.388,2.637c-0.007,0.674,0,1.357,0.007,2.048c0,0.694-0.007,1.307-0.037,1.855
				c-0.044,1.327-0.377,2.428-0.963,3.3c-0.59,0.889-1.472,1.529-2.657,1.913c-0.737,0.246-1.525,0.316-2.33,0.202
				c-0.815-0.115-1.557-0.391-2.21-0.835c-0.73-0.475-1.367-1.091-1.926-1.859C401.096,161.358,400.621,160.409,400.24,159.277z"/>
			<path fill="#9B0000" d="M406.175,187.166l-1.024-10.012l0.983-0.104c0.041,0.219,0.108,0.552,0.186,1.007
				c0.084,0.438,0.161,0.741,0.256,0.889c0.151,0.316,0.34,0.519,0.569,0.6c0.209,0.098,0.481,0.125,0.801,0.098l12.788-1.32
				c0.293-0.03,0.542-0.111,0.758-0.242c0.202-0.135,0.363-0.374,0.458-0.708c0.067-0.206,0.121-0.529,0.168-0.936
				c0.047-0.411,0.074-0.761,0.074-1.044l1.007-0.091l1.027,10.006l-0.987,0.104c-0.057-0.253-0.128-0.566-0.212-0.937
				c-0.081-0.37-0.188-0.7-0.303-0.95c-0.142-0.31-0.34-0.522-0.576-0.603c-0.239-0.084-0.521-0.125-0.814-0.084l-12.771,1.313
				c-0.313,0.037-0.566,0.111-0.778,0.256c-0.195,0.135-0.347,0.371-0.451,0.704c-0.058,0.192-0.095,0.488-0.135,0.906
				c-0.027,0.417-0.037,0.768-0.017,1.044L406.175,187.166z"/>
			<path fill="#9B0000" d="M417.302,216.472l0.117-0.993c0.806-0.162,1.667-0.485,2.613-0.957c0.95-0.475,1.485-0.95,1.61-1.435
				c0.061-0.252,0.131-0.603,0.212-0.99c0.067-0.401,0.121-0.734,0.148-1.004l0.067-0.613l-14.104-1.674
				c-0.303-0.03-0.579-0.02-0.821,0.074c-0.249,0.087-0.458,0.273-0.637,0.586c-0.088,0.182-0.199,0.475-0.333,0.872
				c-0.135,0.421-0.229,0.754-0.294,1.034l-0.996-0.111l1.195-10.076l0.983,0.111c0,0.256,0,0.609-0.007,1.054
				c-0.01,0.455,0.007,0.754,0.067,0.926c0.091,0.344,0.246,0.596,0.465,0.724c0.205,0.151,0.481,0.226,0.795,0.273l14.229,1.687
				l0.074-0.6c0.037-0.283,0.058-0.633,0.077-1.034c0.03-0.394,0.037-0.724,0.037-1c-0.007-0.495-0.417-1.091-1.232-1.765
				c-0.809-0.684-1.572-1.202-2.313-1.552l0.114-0.994l5.166,0.613l-2.074,17.458L417.302,216.472z"/>
			<path fill="#9B0000" d="M411.401,247.876c0.07-0.303,0.121-0.586,0.142-0.842c0.017-0.266,0.006-0.532-0.041-0.798
				c-0.054-0.407-0.191-0.818-0.381-1.186c-0.198-0.38-0.434-0.774-0.7-1.175c-0.556-0.794-1.175-1.646-1.839-2.556
				c-0.684-0.909-1.411-1.902-2.219-2.977c-0.519-0.693-0.927-1.158-1.25-1.404c-0.33-0.229-0.939-0.519-1.828-0.852l-2.398-0.926
				c-0.286-0.107-0.572-0.162-0.814-0.128c-0.256,0.034-0.512,0.162-0.758,0.418c-0.118,0.125-0.286,0.37-0.563,0.774
				c-0.256,0.401-0.435,0.714-0.519,0.913l-0.95-0.36l3.645-9.48l0.936,0.354c-0.08,0.236-0.161,0.569-0.275,1.003
				c-0.115,0.445-0.172,0.758-0.183,0.946c0.021,0.351,0.118,0.61,0.28,0.809c0.178,0.171,0.414,0.343,0.71,0.455L405.38,232
				c0.266,0.104,0.491,0.185,0.7,0.256c0.198,0.057,0.377,0.101,0.528,0.101c0.172,0,0.401-0.003,0.694-0.054
				c0.286-0.047,0.653-0.108,1.107-0.182c1.311-0.199,2.56-0.384,3.735-0.606c1.186-0.192,2.297-0.397,3.337-0.586
				c0.529-0.094,0.994-0.239,1.364-0.418c0.377-0.162,0.7-0.363,0.98-0.579c0.198-0.178,0.391-0.387,0.572-0.69
				c0.172-0.276,0.323-0.532,0.438-0.768l0.93,0.367l-3.718,9.699l-0.937-0.364c0.323-0.906,0.485-1.542,0.516-1.882
				c0.026-0.35-0.061-0.573-0.239-0.626c-0.084-0.037-0.286-0.037-0.59-0.037c-0.3,0.021-0.795,0.074-1.458,0.148
				c-0.619,0.067-1.479,0.205-2.586,0.36c-1.108,0.192-2.422,0.404-3.917,0.677c1.818,2.425,3.102,4.095,3.832,5.021
				c0.745,0.929,1.22,1.441,1.432,1.525c0.272,0.094,0.539,0.02,0.812-0.263c0.267-0.27,0.563-0.768,0.883-1.492l0.929,0.354
				l-2.391,6.264L411.401,247.876z"/>
		</g>
		<path fill="#9B0000" d="M391.865,193.386c0,51.665-41.889,93.563-93.567,93.563c-51.688,0-93.583-41.898-93.583-93.563
			c0-51.702,41.895-93.583,93.583-93.583C349.977,99.803,391.865,141.684,391.865,193.386z M284.565,114.941
			c-4.089,0-7.396,3.317-7.396,7.392v9.571c-7.712,1.774-15.552,4.647-23.382,8.608c-8.88,4.465-17.63,10.312-25.318,16.899
			c-2.994,2.563-3.344,7.079-0.775,10.069c2.566,2.994,7.069,3.341,10.077,0.785c12.026-10.302,25.989-17.926,39.399-21.604v16.415
			c-9.305,3.031-18.408,8.177-27.124,15.37c-9.804,8.103-18.93,18.597-27.131,31.212c-0.778,1.203-1.158,2.56-1.158,3.893
			c0,2.344,1.158,4.627,3.263,6.001c3.311,2.146,7.736,1.206,9.874-2.102c7.416-11.417,15.569-20.819,24.248-27.982
			c8.854-7.305,18.654-12.316,27.231-14.135c3.823-0.815,5.57-4.337,5.57-6.776c0-0.377,0-1.724,0-3.741c0-11.08,0-42.245,0-42.245
			v-0.239C291.943,118.258,288.64,114.941,284.565,114.941z M304.63,122.333v0.239c0,0,0,31.165,0,42.245c0,2.017,0,3.364,0,3.741
			c0,2.438,1.765,5.961,5.584,6.776c8.577,1.819,18.371,6.83,27.222,14.135c8.685,7.163,16.842,16.566,24.244,27.982
			c2.142,3.307,6.58,4.247,9.888,2.102c2.115-1.374,3.253-3.657,3.253-6.001c0-1.333-0.37-2.69-1.155-3.893
			c-8.2-12.616-17.33-23.109-27.13-31.212c-8.709-7.193-17.809-12.339-27.117-15.37v-16.415
			c13.403,3.678,27.376,11.302,39.402,21.604c2.994,2.556,7.507,2.209,10.076-0.785c2.569-2.991,2.206-7.507-0.791-10.069
			c-7.676-6.587-16.435-12.434-25.306-16.899c-7.826-3.96-15.67-6.833-23.382-8.608v-9.571c0-4.075-3.311-7.392-7.386-7.392
			C307.937,114.941,304.63,118.258,304.63,122.333z M356.453,240.935c-3.112-7.23-6.638-13.912-10.494-19.826
			c-4.052-6.23-8.474-11.663-13.147-16.125c-5.025-4.796-10.39-8.527-15.934-11.08c-3.66-1.687-7.402-2.853-11.194-3.512v-4.348
			c0-4.082-3.307-7.399-7.398-7.399c-4.072,0-7.386,3.317-7.386,7.399v4.348c-3.795,0.66-7.541,1.825-11.188,3.512
			c-5.543,2.553-10.901,6.284-15.943,11.08c-4.671,4.462-9.103,9.895-13.138,16.125c-3.859,5.914-7.392,12.595-10.491,19.826
			c-1.559,3.63,0.121,7.833,3.738,9.406c3.634,1.542,7.833-0.135,9.396-3.762c5.601-13.09,12.643-23.891,20.372-31.25
			c5.55-5.311,11.336-8.76,17.253-10.326v11.629c0,4.001-2.943,5.567-4.297,6.389c-0.434,0.27-1.371,0.825-1.808,1.101
			c-2.751,1.782-5.9,4.53-8.844,8.312c-5.318,6.816-9.46,16.104-11.649,26.164c-0.849,3.866,1.6,7.665,5.459,8.5
			c3.866,0.835,7.658-1.593,8.503-5.462c1.751-7.999,4.92-15.259,8.955-20.416c2.044-2.637,6.227-7.062,11.066-7.062
			c4.856,0,9.025,4.425,11.087,7.062c4.027,5.156,7.21,12.417,8.954,20.416c0.839,3.87,4.645,6.298,8.49,5.462
			c3.859-0.835,6.318-4.634,5.47-8.5c-2.186-10.06-6.332-19.348-11.646-26.164c-2.946-3.782-6.108-6.53-8.833-8.312
			c-0.455-0.276-1.385-0.832-1.829-1.101c-1.347-0.822-4.294-2.388-4.294-6.389v-11.629c5.924,1.566,11.693,5.015,17.26,10.326
			c7.713,7.358,14.758,18.159,20.372,31.25c1.553,3.627,5.752,5.304,9.379,3.762C356.318,248.769,358.005,244.565,356.453,240.935z"
			/>
	</g>
	<g>
		<g>
			<path fill="#9B0000" d="M136.242,485.074c-1.142,0.114-2.283,0.229-3.429,0.336c-3.182,0.953-6.654,2.243-10.285,3.436
				c-3.711,1.216-9.063,3.25-13.02,0.337c-0.276-0.351-0.128-0.084-0.343-0.684c3.542-3.782,3.462-6.039,8.911-8.567
				c0.077-3.745,1.532-8.211-0.34-10.626c0.401-5.624,7.025-2.893,11.996-4.115c3.048-0.741,6.766-1.865,9.254-3.422
				c2.923-1.832,5.87-5.85,7.197-9.254c0.542-1.401-0.087-4.257,0.687-5.483c0-0.916,0-1.828,0-2.744
				c-0.259-0.516-8.75-3.308-9.941-4.112c-0.873-0.589-3.055-2.411-3.432-3.425c-0.327-0.906,0.061-1.806-0.337-2.404
				c-0.421-0.855-0.781-0.778-1.374-1.371c-1.711,0.158-2.213,0.734-2.967,1.418c-0.229,0.205-0.656,0.374-0.801,0.64
				c-0.145,0.267,0,0.576,0,0.872c0,2.792,0,5.587,0,8.383c-0.829,1.839-4.54,2.92-6.167,4.108
				c-1.374,1.492-2.745,2.974-4.115,4.459c-2.038-0.179-2.199-0.886-3.425-1.714c-2.971-13.869-4.25-25.424-13.714-32.557
				c-2.276-1.718-4.028-5.139-6.853-6.17c-1,2.745-2.293,5.591-3.068,8.373c-0.182,0.649,0.088,1.202-0.087,1.862
				c-1.681,6.361-3.007,12.851-4.729,19.58c-0.404,1.586-2.364,10.234-2.058,11.655c1.482,6.837,3.398,15.535,5.143,21.935
				c0.812,2.987,0.182,5.139,1.027,7.88c1.542,4.984,5.961,17.833,9.598,20.224c4.085,2.691,10.811,3.957,16.108,1.715
				c1.62-0.69,3.038-3.008,4.112-3.429c1.714,0,3.428,0,5.143,0c5.028-1.371,10.056-2.738,15.081-4.108
				c1.802-0.748,6.257-3.152,7.534-4.459c1.822-1.855,1.96-5.51,4.119-7.537c0.047-2.469-0.202-3.482-1.027-4.799
				C144.298,481.446,140.6,483.431,136.242,485.074z"/>
			<path fill="#9B0000" d="M60.498,440.175c-0.034-4.573,0.094-9.793-0.687-13.37c-0.647-2.964,0.707-6.782-0.34-9.248
				c-3.146-7.408-16.576-13.982-23.992-17.822c-2.856-1.481-2.883-4.341-6.857-5.146c-0.893-0.172-2.758,1.818-2.738,2.404
				c-0.192,4.732,3.398,6.571,5.823,9.592c1.482,1.839,2.364,3.96,3.772,5.829c2.203,2.917,5.9,5.456,7.197,9.252
				c2.098,6.115,2.166,21.57,0.684,28.447c0,2.29,0,4.57,0,6.854c-0.229,2.63-0.455,5.253-0.684,7.887
				c-1.919-0.721-3.169-2.623-5.143-3.432c-1.485-0.222-2.97-0.454-4.452-0.677c-1.381-0.858-2.28-2.455-4.109-3.095
				c-2.071-0.718-3.974,0.087-6.173-0.684c-2.381-0.832-3.122-2.738-6.854-2.741c-0.751,0.11-2.182,1.249-2.061,1.71
				c0.502,2.907,2.937,4.348,3.772,6.857c0,0.916,0,1.832,0,2.741c0.552,2.162,1.182,5.129,1.711,7.54
				c0.869,3.92-1.657,6.16-2.398,8.571c-3.018,9.811-4.769,19.708-12.44,24.786c-0.296,0.199-0.519,0.397-0.717,0.748
				c-0.179,0.303-0.219,1.145-0.229,1.341c-0.195,5.637-1.058,16.636,4.132,18.367c0.188,0.138,0.512,0.344,0.512,0.344
				c0.545,0.246,5.163,0.222,6.005,0c1.835-0.95,5.143-5.726,7.193-7.2c3.091-2.209,6.469-3.657,9.598-5.826
				c0.572-0.684,1.142-1.367,1.711-2.055c3.148-2.341,6.207-4.772,8.911-7.544c0.347-0.175,0.822-0.222,1.031,0
				c0.259,1.146,0.744,3.718,0,4.8c-0.067,5.893-0.697,10.103,1.714,13.71c1.337,0.04,3.32,0.188,4.108-0.341
				c2.691-1.003,4.008-5.536,5.146-8.227c2.933-6.928,3.63-15.085,5.486-23.306c0.111-2.855,0.222-5.711,0.34-8.567
				c1.694-7.719,1.371-17.183,1.371-26.053c0.115-3.54,0.232-7.082,0.34-10.622C60.832,444.32,60.511,442.229,60.498,440.175z
				 M42.676,489.873c0,1.479,0,2.97,0,4.452c-0.64,1.418-3.819,2.542-5.143,3.425c-1.148,0.778-2.469,2.169-3.769,2.745
				c-2.418,1.074-4.449,1.114-6.51,2.4c-1.866,1.162-3.94,2.896-5.83,4.109c-1.404,0.905-6.311,2.872-8.567,1.377
				c-0.344-0.121-0.687-0.232-1.027-0.344c0.249-3.688,2.917-5.371,4.452-7.887c3.011-4.91,6.938-8.948,9.941-13.703
				c0.229-0.806,0.458-1.604,0.687-2.405c1.105-1.684,3.321-3.088,4.112-5.136c6.004,0.121,9.177-2.906,10.285-7.547
				c0.886,0.067,1.158,0.155,1.711,0.344c0.077,3.832,0.125,8.264,0,11.995C42.955,485.545,43.454,488.641,42.676,489.873z"/>
		</g>
		<g>
			<path fill="#9B0000" d="M498.861,425.435c1.092,1.472,3.045,2.623,4.109,4.111c3.597,5.021,4.532,15.374,6.513,21.941
				c6.156-0.061,8.78-5.405,11.652-8.915c-0.007-8.5-8.712-21.566-13.71-25.016c-2.883-1.993-6.321-2.853-9.251-4.802
				c-3.092-2.055-4.803-5.005-8.571-6.514c-0.515-0.155-1.646,1.037-1.714,1.374c0,1.825,0,3.65,0,5.482
				c1.253,1.031,2.519,2.062,3.771,3.085C494.093,419.416,496.457,422.215,498.861,425.435z"/>
			<path fill="#9B0000" d="M572.205,435.032c5.324-6.894,12.447-13.259,15.764-21.935c0.95-2.479,5.075-8.523,2.401-11.995
				c-1.179-1.762-4.496-0.708-6.86-1.368c-1.054-0.299-1.835-1.447-2.737-1.714c-1.566-0.479-3.18,0.731-4.112,1.027
				c-4.32,1.377-8.046,1.815-11.999,3.422c-1.752,0.714-6.76,3.745-8.908,2.401c-0.343-0.108-0.687-0.227-1.034-0.341
				c0.374-6.584,5.005-10.46,7.207-15.765c0.634-1.539,2.597-5.631,1.364-7.54c-0.185-3.071-3.371-5.187-5.139-6.856
				c-0.563-0.469-3.136,0.391-3.085,1.374c0.128,8.723-3.54,18.176-8.564,21.587c-1.606,1.085-2.994,0.616-5.143,1.378
				c-3.398,1.182-6.981,4.62-10.969,1.707c-2.048,0.007-2.317,0.33-3.429,1.03c0.367,3.412,2.378,6.278,5.14,7.194
				c0.7,0.387,3.152,0.043,4.803,0c-0.064,2.681-2.176,4.99-3.772,6.169c0,1.146,0.102,2.034,0.344,2.748
				c3.697,0.688,4.398-1.242,7.884-1.374c-0.569,3.894-3.708,5.732-5.486,8.568c-2.33,0.471-5.738,0.794-7.88,1.03
				c-0.189,0.017-0.364,0.263-0.344,0.344c0.063,2.603,1.058,3.522,2.741,4.455c-0.923,3.58-3.826,6.072-5.83,8.911
				c-0.781,1.104-3.074,2.63-1.714,4.796c0.462,0.802,1.048,0.852,2.062,1.027c3.451-3.321,9.314-4.88,10.965-9.938
				c5.442,0.344,5.436,1.653,8.571,3.771c-0.172,1.943-1.054,3.91-2.058,5.14c-0.017,1.303,0.051,2.586,0.344,3.428
				c4.092-0.188,10.224-5.58,13.022-3.774c0.229,0,0.455,0,0.688,0c-0.495,2.31-3.089,2.374-4.8,3.428
				c-3.644,2.264-7.988,3.725-11.999,5.83c-5.425,2.846-11.434,6.062-16.448,9.254c-1.484,0.458-2.974,0.91-4.455,1.368
				c-8.167,4.836-15.896,10.81-24.336,15.421c-0.222,0.596-0.067,0.34-0.343,0.69c0.017,1.057,0.121,1.758,0.343,2.4
				c10.447,2.18,18.789-2.637,26.05-5.482c9.787-3.836,19.068-10.211,27.073-16.104c2.607-1.927,4.489-5.105,7.193-6.86
				c2.119-1.37,3.975-1.923,5.833-3.428c0.569,0,1.146,0,1.715,0c-0.597,2.098-2.081,2.919-3.089,4.455
				c-0.343,0.916-0.684,1.829-1.026,2.738c-1.829,1.721-3.658,3.432-5.479,5.143c-0.876,1.155-1.627,2.909-2.745,3.771
				c-2.751,2.115-5.786,4.136-7.884,6.856c-0.283,0.476,0.188,2.314,0.344,3.429c5.462-0.444,8.658-3.99,12.68-5.829
				c2.472-1.136,5.159-1.364,7.544-2.742c1.582-0.922,2.391-2.748,3.769-3.769c6.671-4.95,12.696-8.81,11.309-20.91
				c-1.69-0.6-4.146-0.7-5.482-1.711c-2.398,0-4.8,0-7.201,0C566.146,437.895,570.049,437.827,572.205,435.032z M561.236,430.58
				c-1.317,1.755-2.321,3.876-3.422,5.826c-0.896-0.07-1.169-0.155-1.721-0.344c-1.001-5.045-1.375-8.914-3.082-12.686
				c-1.199-0.227-1.809-0.401-2.744,0.35c-2.021,1.69-0.56,6.18-3.082,8.221c-0.993,1.027-3.606-2.825-4.455-3.425
				c0.633-7.318,7.682-12.808,11.309-17.482c6.591,0.135,11.319,3.396,17.482,3.769C571.339,422.918,564.822,425.801,561.236,430.58
				z"/>
			<path fill="#9B0000" d="M487.89,462.109c0.893,2.03,3.062,4.32,3.771,6.517c1.438,0.27,2.155,0.121,3.772,0
				c2.65-2.759,4.297-5.237,5.139-9.952c0.721-4.052-7.554-14.141-10.281-15.074c-0.677-0.458-2.236-0.387-3.429-0.34
				c-0.528,2.33,0.774,9.467,1.027,11.992C487.89,457.539,487.89,459.829,487.89,462.109z"/>
			<path fill="#9B0000" d="M547.873,481.989c-2.65,3.441-13.549,3.246-18.17,5.143c-6.334,2.59-13.094,4.745-19.532,7.533
				c-4.277,1.859-8.729,4.422-13.026,6.173c-1.142,0.226-2.284,0.455-3.426,0.688c-1.839,0.765-3.839,2.701-5.485,3.428
				c-1.597,0.111-3.2,0.227-4.796,0.337c-1.708,0.785-2.58,2.452-3.772,3.775c0.102,6.133,3.271,7.901,4.796,11.363
				c0.307,0.697-0.026,1.407,0.694,2.347c0.525,0.563,2.084,1.169,3.078,1.371c2.428,0.491,5.876-1.688,7.54-2.401
				c6.422-2.771,11.185-7.493,16.795-10.965c2.011-1.25,5.072-2.722,7.197-3.433c2.475-0.828,4.313-0.107,6.51-1.03
				c3.98-1.657,2.304-4.351,8.228-2.395c0.245,0.916,0.821,1.667,1.026,2.395c0.671,2.395-0.781,5.314-0.343,7.204
				c0.478,2.037,1.132,2.465,1.03,5.139c-0.805,0.865-1.104,2.374-2.055,3.085c-2.926,2.192-7.678,3.071-11.652,4.112
				c-2.721,0.711-6.122-1.165-8.23,0.344c-0.229,0-0.455,0-0.684,0c0.074,1.172,0.165,1.751,0.684,2.397
				c1.014,3.111,2.934,2.055,6.173,3.085c3.162,1.014,6.551,5.503,11.999,2.397c1.146-0.653,1.566-2.297,3.078-2.737
				c2.685-0.778,5.146,0.484,6.857-1.031c1.616-0.808,1.913-2.853,2.738-4.455c0.73-1.408,1.963-3.54,2.4-5.14
				c0.644-2.344-0.605-4.479-1.023-5.826c-0.229-1.37-0.458-2.741-0.688-4.111c-1.293-3.176-3.354-4.924-3.428-9.595
				c-0.044-0.543,0.559-1.189,1.027-1.375c3.825-0.929,7.587-1.808,12.68-1.71c1.643-1.661,3.879-2.772,5.143-4.8
				c0.821-1.319,0.835-3.182,1.714-4.455c-0.004-3.297-1.172-3.624-2.398-5.486C555.605,483.282,552.604,481.952,547.873,481.989z"
				/>
		</g>
		<g>
			<path fill="#9B0000" d="M423.795,438.801c0.979-1.475,0.993-2.755,2.404-3.769c1.07-0.73-0.33-4.56-1.03-4.803
				c-12.814-2.883-13.926,6.574-20.567,11.659c-3.034,2.334-6.477,3.836-9.595,6.17c-0.226,0-0.458,0-0.684,0
				c-1.243-6.84-0.34-15.835-0.34-23.308c0-2.971,0-5.941,0-8.908c0.242-0.616,1.421-1.391,1.711-2.058
				c1.185-2.721,0.659-7.072-0.688-9.255c-1.846-3.004-5.715-3.795-8.567-5.822c-1.499-1.074-2.641-3.018-4.452-3.772
				c-2.806-1.168-5.863-0.054-8.225-1.718c-1.532,0.236-2.04,0.762-3.085,1.371c-3.017,7.888,4.392,18.974,6.507,24.679
				c1.839,4.94,1.909,20.349,0.69,26.047c-0.923,4.3,0.583,10.716-1.718,13.71c-1.303,1.788-12.524,5.587-15.424,6.854
				c-2.408,1.054-5.233,2.546-7.881,3.428c-2.934,0.983-5.749,1.246-8.228,2.745c-3.809,2.29-9.897,6.452-14.05,7.881
				c-1.257,0.117-2.509,0.229-3.772,0.343c-1.751,0.569-4.011,1.566-5.826,2.058c-1.033,0.28-2.444,0.421-2.741,0.344
				c-1.242-1.199-2.842-3.018-3.769-4.459c-0.491-0.64-1.061-1.021-1.461-0.747c-0.236,0-0.539,0.323-0.597,1.094
				c-0.296,10.656-1.067,12.896,3.769,20.221c10.009,2.104,17.183-2.796,23.652-7.197c2.865-1.953,5.657-3.136,8.567-5.139
				c2.175-1.503,3.829-4.177,6.169-5.49c1.027-0.229,2.055-0.454,3.085-0.684c4.489-1.778,9.12-4.479,15.078-4.799
				c-0.048,11.315-9.743,22.87-16.788,27.42c-1.064,0.681-2.199,1.496-3.456,2.034c-1.363,0.58-2.609,1.189-3.741,1.738
				c-0.92,0.111-1.829,0.229-2.745,0.337c-1.67,0.821-3.92,2.267-5.482,3.428c-2.304,1.711-1.994,3.361-3.429,5.489
				c0,0.227,0,0.455,0,0.678c18.297-0.115,29.613-8.109,39.757-16.448c3.806-3.125,8.521-5.877,10.625-10.625
				c2.539-5.719,3.466-12.724,5.14-18.85c0.35-2.398,0.684-4.799,1.026-7.197c1.011-1.795,6.022-4.472,7.888-5.829
				c1.802-1.311,3.324-3.459,5.14-4.796c3.66-2.708,7.324-5.149,10.965-7.888C419.578,443.506,422.451,440.855,423.795,438.801z"/>
			<path fill="#9B0000" d="M424.488,490.557c-3.375-2.644-4.803-6.561-10.976-6.514c-0.313,0.311-0.589,0.465-1.023,0.684
				c-0.186,8.083,0.882,9.211,3.081,15.084c0.235,1.027,0.455,2.052,0.693,3.085c0.809,1.58,4.001,5.2,2.052,8.221
				c0.384,3.136,5.644,4.277,9.254,3.089c3.866-1.27,7.884-3.944,10.282-6.857C437.805,498.478,429.634,494.591,424.488,490.557z"/>
		</g>
		<g>
			<path fill="#9B0000" d="M230.835,384.308c0.461,0.343,0.919,0.687,1.374,1.026c1.263,1.815,2.762,4.796,3.425,6.857
				c1.397,4.327,1.781,11.585-1.371,13.713c-0.479,0.26-0.081,3.459,1.03,3.422c5.453-0.663,10.932-4.485,13.026-8.567
				c9.467,0.266,14.71-2.472,14.05-11.993c-0.909-0.973-1.34-2.62-2.404-3.432c-2.812-2.145-6.015-4.297-8.908-6.169
				c-1.351-0.876-3.068-0.862-4.452-1.711c-4.85-2.961-8.79-5.991-16.798-5.83c-3.964,4.688-1.509,4.591,0.34,8.567
				C230.381,381.565,230.606,382.934,230.835,384.308z"/>
			<path fill="#9B0000" d="M223.295,447.031c2.583,0.657,8.564-0.666,10.628-1.374c5.752-1.963,11.811-12.124,16.792-15.771
				c3.321-2.422,7.076-5.998,10.969-7.534c1.489-0.229,2.971-0.458,4.459-0.687c1.482-1.6,2.97-3.199,4.452-4.8
				c-0.108-1.963-0.549-3.465-1.371-3.428c-1.371,0-2.741,0-4.112,0c-1.775,1.155-5.082,0.728-7.197,1.37
				c-3.896,1.199-7.978,2.978-11.656,4.122c-1.027,0.108-2.054,0.216-3.078,0.337c-11.339,4.264-23.153,9.154-33.937,13.707
				c-0.721,1.694-2.229,4.29-0.684,6.173C209.753,442.553,219.382,446.028,223.295,447.031z"/>
			<path fill="#9B0000" d="M257.572,477.533c-4.207,0.01-7.951-0.872-11.652,0.347c-1.755,0.569-2.566,2.015-4.456,2.395
				c0.364-2.223,4.701-4.89,6.169-6.513c1.192-1.317,2.357-3.048,3.772-4.112c1.186-0.899,2.87-1.576,3.769-2.741
				c0.609-0.792,0.967-2.129,1.714-2.741c0.565-0.115,1.145-0.226,1.71-0.347c0.876-0.799,1.088-2.361,2.058-3.075
				c2.886-2.152,5.647-2.653,7.54-5.833c0.377-0.674-0.327-2.102-1.03-2.741c-2.263-1.815-13.464-3.287-17.479-2.058
				c-2.024,0.623-4.87,1.839-6.507,3.085c-0.572,0.795-1.148,1.6-1.717,2.401c-1.714,0.229-3.425,0.454-5.139,0.684
				c-2.068,1.256-3.819,3.725-5.826,5.139c-4.146,2.917-8.568,5.368-13.027,7.884c-1.93,1.125-4.196-3.522-5.486-4.452
				c-0.839-0.605-1.963-0.721-2.741-1.374c-0.792,0.081-0.963,0.067-1.368,0.341c-0.794,0.259-0.771,0.356-1.371,0.689
				c-0.151,2.432,0.943,5.352,0.337,7.885c-1.34,5.647-3.829,16.02-1.711,22.617c0.344,1.067,1.606,2.388,2.058,3.425
				c0.556,1.287,0.327,2.54,1.027,3.772c0.987,1.744,3.341,2.316,4.112,4.459c2.994-0.593,8.181-10.05,10.514-13.71
				c0.007-0.018,0.007-0.03,0.007-0.03c0.509-0.886,0.441-1.445,0.441-2.048v-0.095h0.003c0-2.818,0-5.634,0-8.453
				c1.128-0.289,3.432-0.707,4.458-1.374c1.64,0.004,2.169,0.192,3.082,0.688c-0.101,1.067-3.91,10.379-4.452,10.972
				c0.266,2.381,1.826,3.21,3.765,3.769c-0.586,4.678-5.799,5.688-8.908,7.878c-3.688,2.603-7.756,5.476-11.652,7.887
				c-1.539,0.953-3.263,1.098-4.795,2.055c-0.94,0.589-1.799,1.828-2.742,2.395c-1.616,0.977-3.331,1.021-4.802,2.061
				c-0.738,0.522-1.034,1.762-2.054,2.058c-1.415,0.404-2.55-0.835-3.429-1.026c-2.125-0.479-3.61,0.996-5.143,1.373
				c-0.417,8.44,3.273,17.052,12.683,17.132c4.708-4.994,9.854-9.173,14.057-14.737c1.482-1.252,2.963-2.512,4.452-3.768
				c1.014-1.492,1.273-2.826,2.401-4.119c0.414-0.472,1.168-0.297,1.71-0.681c1.256-1.37,2.516-2.741,3.765-4.111
				c1.162-0.839,2.256-0.903,3.088-2.062c0.707,0.138,0.667,0.091,1.027,0.347c0.892,1.199,0.865,3.206,1.714,4.456
				c0.064,3.058,0.296,6.57-1.714,7.543c-1.027,0.22-2.055,0.455-3.085,0.681c-0.855,0.637-1.142,2.068-2.054,2.738
				c0,0.69,0,1.374,0,2.064c0.242,0.468,6.271,2.448,7.197,3.081c0.724,0.495,2.118,2.223,2.398,3.082c0,1.033,0,2.058,0,3.088
				c0.424,0.933,2.101,2.095,2.741,3.082c1.104,0.252,3.421,0.714,4.459,0c0.343-0.115,0.687-0.227,1.023-0.341
				c-0.162-10.501-0.794-20.129-3.768-28.107c-1.007-2.707-4.779-7.695-2.395-11.309c0.003-5.078,3.496-3.65,6.51-5.482
				c4.193-2.546,8.732-4.991,12.68-7.884c1.529-1.118,2.182-3.038,3.428-4.452C258.68,479.651,257.986,478.931,257.572,477.533z"/>
			<path fill="#9B0000" d="M277.452,500.495c-3.59-4.914-7.389-9.43-16.104-9.252c-0.626,0.418-1.967,0.388-3.088,0.344
				c-1.714,7.103-1.505,12.828,2.051,18.159c0.919,0.802,1.832,1.6,2.748,2.404c2.014,3.004,3.159,5.954,6.854,7.197
				c3.745,2.421,8.177-2.271,9.935-3.426c0.505-2.003,2.186-8.486,1.03-10.284C280.712,502.758,278.715,502.229,277.452,500.495z"/>
		</g>
	</g>
</g>
</svg>
